<svg xmlns="http://www.w3.org/2000/svg" version="1.1" xmlns:xlink="http://www.w3.org/1999/xlink" xmlns:svgjs="http://svgjs.dev/svgjs" width="512" height="512"><svg id="SvgjsSvg1001" data-name="Layer 1" xmlns="http://www.w3.org/2000/svg" viewBox="0 0 512 512">
  <defs>
    <style>
      .cls-1 {
        fill: #e6e6e6;
      }

      .cls-2 {
        fill: #ee4137;
      }

      .cls-3 {
        fill: #333;
      }
    </style>
  </defs>
  <rect class="cls-1" x="0" y="0" width="512" height="512" rx="80" ry="80"></rect>
  <g>
    <path class="cls-3" d="M149.67,98.12l-51.55,51.55c-12.59,12.59-34.12,3.67-34.12-14.13v-51.55c0-11.04,8.95-19.99,19.99-19.99h51.55c17.81,0,26.72,21.53,14.13,34.12Z"></path>
    <path class="cls-3" d="M313.94,98.12l-215.82,215.82c-12.59,12.59-34.12,3.67-34.12-14.13v-72.11c0-5.3,2.11-10.38,5.85-14.13L213.57,69.85c3.75-3.75,8.83-5.85,14.13-5.85h72.11c17.81,0,26.72,21.53,14.13,34.12Z"></path>
    <path class="cls-2" d="M448,83.99v36.05c0,5.3-2.11,10.38-5.85,14.13L134.17,442.15c-3.75,3.75-8.83,5.85-14.13,5.85h-36.05c-11.04,0-19.99-8.95-19.99-19.99v-36.05c0-5.3,2.11-10.38,5.85-14.13L377.83,69.85c3.75-3.75,8.83-5.85,14.13-5.85h36.05c11.04,0,19.99,8.95,19.99,19.99Z"></path>
    <path class="cls-3" d="M448,212.19v72.11c0,5.3-2.11,10.38-5.85,14.13l-143.71,143.71c-3.75,3.75-8.83,5.85-14.13,5.85h-72.11c-17.81,0-26.72-21.53-14.13-34.12l215.82-215.82c12.59-12.59,34.12-3.67,34.12,14.13Z"></path>
    <path class="cls-3" d="M448,376.46v51.55c0,11.04-8.95,19.99-19.99,19.99h-51.55c-17.81,0-26.72-21.53-14.13-34.12l51.55-51.55c12.59-12.59,34.12-3.67,34.12,14.13Z"></path>
  </g>
</svg><style>@media (prefers-color-scheme: light) { :root { filter: none; } }
@media (prefers-color-scheme: dark) { :root { filter: none; } }
</style></svg>